<svg xmlns="http://www.w3.org/2000/svg" width="48" height="48"><g fill="none" fill-rule="evenodd"><rect width="48" height="48" fill="#E5E1FF" rx="2"/><path fill="#7E6EE6" d="M27 14H13a.945.945 0 0 0-1 1v3a.945.945 0 0 0 1 1h14a.945.945 0 0 0 1-1v-3a.945.945 0 0 0-1-1z"/><path fill="#A59AEE" d="M27 22H13a.945.945 0 0 0-1 1v3a.945.945 0 0 0 1 1h14a.945.945 0 0 0 1-1v-3a.945.945 0 0 0-1-1z"/><path fill="#7E6EE6" d="M27 30H13a.945.945 0 0 0-1 1v3a.945.945 0 0 0 1 1h14a.945.945 0 0 0 1-1v-3a.945.945 0 0 0-1-1zM35 14h-3a.945.945 0 0 0-1 1v19a.945.945 0 0 0 1 1h3a.945.945 0 0 0 1-1V15a.945.945 0 0 0-1-1z"/></g></svg>